<?xml version="1.0" encoding="utf-8" ?>
<svg baseProfile="tiny" height="200" version="1.2" width="200" xmlns="http://www.w3.org/2000/svg" xmlns:ev="http://www.w3.org/2001/xml-events" xmlns:xlink="http://www.w3.org/1999/xlink"><defs /><path d="M180.0,100.0 L178.01673490923184,107.8277835142953 L175.28567741884748,115.26116234286904 L171.86552339323657,122.23061148269645 L167.82122311684304,128.6743532203291 L163.2230248164247,134.53889587266858 L158.14547462341437,139.77945942837556 L152.666385947351,144.36028492443774 L146.865791413542,148.25482584606274 L140.8248905403606,151.4458212950285 L134.6250061951648,153.92525211457348 L128.346562575905,155.69418257081261 L122.06809702301683,156.76249155499372 L115.86531737987065,157.14849857182094 L109.81021589821007,156.87849100160358 L103.97024983753074,155.98616025421143 L98.40759794552443,154.5119554580033 L93.17850094310042,152.50236423565178 L88.33269298577581,150.00913090118823 L83.91292984802895,147.08842306028134 L79.95461829393516,143.79995810204483 L76.48554977204003,140.2061014305774 L73.52574022135646,136.3709484947872 L71.08737641517959,132.35940273445496 L69.17486791668955,128.23626146938264 L67.7850023914472,124.06532151907902 L66.90720073289943,119.90851595674691 L66.52386722333233,115.82509287905255 L66.61082878903653,111.87084641960608 L67.13785632854112,108.09740945812914 L68.06926010931859,104.55161658922053 L69.36455035282307,101.27494492604217 L70.97915337019592,98.30303923787504 L72.86517298009115,95.66532677007896 L74.97218644289585,93.38472588509845" fill="none" stroke="black" stroke-width="8.0" /><path d="M124.7213595499958,176.0845213036123 L116.66383241317953,176.6172422497018 L108.75032586303028,176.31689261075132 L101.0651001263161,175.21781106359947 L93.68698004165661,173.36267863617275 L86.68854711872302,170.80177552315223 L80.13542570057697,167.5921615240895 L74.08567024794515,163.7967914619097 L68.58925943803017,159.4835775622154 L63.687701391675574,154.72441124518667 L59.4137529282196,149.59415709802826 L55.791254314364195,144.16963195458484 L52.83507953910194,138.52858200953128 L50.55120072831762,132.74867073892176 L48.936863926923834,126.90649009015297 L47.980872139598844,121.07660694765389 L47.66397024896425,115.33065628266236 L47.95932523708708,109.73649166471421 L48.8330940361823,104.35740295889437 L50.24507033979542,99.25141006781472 L52.14940082768885,94.47064051326582 L54.49536050580198,90.06079750321186 L57.22817624509926,86.06072390985547 L60.289887126302006,82.50206630923728 L63.62022986613454,79.4090419181625 L67.15753741775085,76.79830992644557 L70.83963880459696,74.6789473779961 L74.60474836245857,73.05252841957761 L78.39233282641223,71.9133044273919 L82.14394510366438,71.24848125480581 L85.80401411395809,71.03858863478992 L89.3205807488745,71.25793563245946 L92.64597079095773,71.8751449900385 L95.73739653275018,72.85375825106615 L98.55747983286285,74.15290270394264" fill="none" stroke="black" stroke-width="8.0" /><path d="M35.27864045000422,147.02282018339787 L32.282079904945306,139.52427632030486 L30.122321377142484,131.905271206351 L28.792744686248597,124.2565523139759 L28.277115977244307,116.66627568256143 L28.550044863303427,109.21900786447985 L29.577543287494592,101.9947937665846 L31.31767747020649,95.06830057221151 L33.72130330735568,88.50804685982696 L36.732874710059434,82.37572486882378 L40.29131363867408,76.72562261540982 L44.330929990371835,71.60415124769426 L48.782379055462876,67.04948166523431 L53.573643967358656,63.09129303121182 L58.63103043646808,59.75063439207318 L63.880161079614794,57.03989920696087 L69.24695683210979,54.962911194524175 L74.65859325594052,53.515118544321666 L80.04442002941512,52.6838922300879 L85.3368325141043,52.44892291799221 L90.47208503552889,52.78270979913683 L95.39103637473467,53.65113360533975 L100.03981893729463,55.01410510293478 L104.37042413178015,56.82627951176181 L108.34119763767315,59.03782657511745 L111.91723945847602,61.595245419023286 L115.07070492411782,64.44221289193 L117.78100411181047,67.5204537733745 L120.03489848009067,70.77062108485084 L121.82649484053934,74.13317472916101 L123.15713810929358,77.549246824912 L124.0352055698713,80.96148238798038 L124.47580662435637,84.31484443730582 L124.50039319658524,87.55737316225834 L124.13628706435617,90.64088947541241" fill="none" stroke="black" stroke-width="8.0" /><path d="M35.278640450004204,52.97717981660216 L41.484191320627154,47.81010389698923 L48.06289369310182,43.40164941505694 L54.92639584419395,39.77356271632757 L61.985839861113526,36.9376462015261 L69.15295211214327,34.89588467964896 L76.34110247982636,33.64068882420625 L83.46632000235965,33.155250669418635 L90.44825327587021,33.414004800036594 L97.2110648086429,34.38318769666692 L103.68424947687346,36.021486611303104 L109.80336829758791,38.28076837708886 L115.51068989426535,41.10687771265687 L120.75573326970604,44.44049387355693 L125.49570680325326,48.218033938527036 L129.6958397394315,52.37259060212644 L133.32960381578664,56.83489208120595 L136.37882407234812,61.53427163266663 L138.83367927677943,66.39963422394666 L140.69259377118854,71.36040809383796 L141.96202388234914,76.34746928593303 L142.65614332087205,81.29402772485993 L142.7964332115447,86.13646402942739 L142.4111835323909,90.81510700824342 L141.53491378082788,95.27494265219201 L140.20772161965886,99.46624641291221 L138.4745690729284,103.34513162448344 L136.38451653274214,106.8740080731941 L133.98991539543766,110.02194593299606 L131.3455705630634,112.76494154676071 L128.50788431976108,115.08608282997085 L125.53399321989701,116.97561338789873 L122.48090960496461,118.43089575338685 L119.40467920047645,119.45627545387775 L116.35956593513396,120.06284888739528" fill="none" stroke="black" stroke-width="8.0" /><path d="M124.72135954999578,23.91547869638771 L131.55316145201613,28.220594018708766 L137.77878164787785,33.11502442497168 L143.35023595000467,38.52146242340057 L148.22884100314235,44.35904625941054 L152.3854310894054,50.54443606005031 L155.80045390868747,56.99289645674392 L158.46394633213745,63.61937237202222 L160.37539256520165,70.33954493185806 L161.5434685492612,77.07085489429384 L161.98567776106782,83.73348156068502 L161.7278848217708,90.25126584981903 L160.80375448815278,96.55256705758339 L159.25410465474684,102.57104378448807 L157.12618293514458,108.24635057764272 L154.47287720382394,113.52474298904686 L151.3518711576148,118.35958498360365 L147.82475649152377,122.71175392264513 L143.95611367184728,126.54993968588225 L139.81257352688277,129.85083586007315 L135.46187196049797,132.59922229961887 L130.97191002655134,134.78793973601043 L126.40983138470509,136.41775846299456 L121.84112879434753,137.4971444363019 L117.32879079867513,138.04192738514482 L112.93249911266736,138.07487672253933 L108.7078864654577,137.62519214884298 L104.70586376965684,136.72791685480072 L100.97202450902331,135.4232821351546 L97.5461331641922,133.7559930111429 L94.46170334766909,131.7744651211063 L91.74567010853455,129.53002366561893 L89.41815960952584,127.07607558139348 L87.49235809009743,124.46726636271855 L85.97448072475164,121.75863304815103" fill="none" stroke="black" stroke-width="8.0" /></svg>